      <svg xmlns="http://www.w3.org/2000/svg" xml:space="preserve" width="1.78106in" height="1.5101in" version="1.1" style="shape-rendering:geometricPrecision; text-rendering:geometricPrecision; image-rendering:optimizeQuality; fill-rule:evenodd; clip-rule:evenodd" viewBox="0 0 105.24 89.23" xmlns:xlink="http://www.w3.org/1999/xlink">
 <defs>
  <style type="text/css">
   
   
    .feature-one-fil0 {fill:rgba(2,33,49,.89)}
    .feature-one-fil2 {fill:#DDDDDD}
    .feature-one-fil1 {fill:#f06192}
    .feature-one-fil6 {fill:#f06192}
    .feature-one-fil4 {fill:#1A1d0B}
    .feature-one-fil5 {fill:#DDDDDD}
    .feature-one-fil3 {fill:#f9f7f7}
  </style>
 </defs>
 <g id="Layer_x0020_1">
  <metadata id="CorelCorpID_0Corel-Layer"></metadata>
  <g id="_1979932116112">
   <g id="Group_21002">
    <g id="Group_20381">
     <g id="Group_20270">
      <path id="Path_88182" class="feature-one-fil0" d="M12.68 6.34c-3.42,3.21 -6.12,7.1 -7.92,11.43 -2.5,5.95 -3.57,12.39 -4.3,18.79 -2.35,20.71 4.07,44.59 26.32,50.97 14.93,4.27 31.12,-0.1 44.78,-6.43 20.07,-9.3 48.35,-38.26 24.71,-59.79 -12.71,-11.58 -33.24,-7.21 -48.26,-13.51 -7.04,-2.95 -13.67,-8.39 -21.69,-7.74 -5.24,0.41 -9.87,2.83 -13.63,6.29z"></path>
     </g>
    </g>
    <g id="travel_2_">
     <g id="Group_20250">
      <path id="Path_88151" class="feature-one-fil1" d="M48.74 38.54l-7.14 -8.02c-0.23,-0.26 -0.21,-0.67 0.05,-0.9 0.07,-0.06 0.16,-0.11 0.25,-0.14l5.81 -1.65c0.17,-0.05 0.34,-0.03 0.49,0.06l12.69 7.21 -12.15 3.44z"></path>
     </g>
     <g id="Group_20251">
      <path id="Path_88152" class="feature-one-fil2" d="M60.89 35.1l-3.42 0.97 -12.8 -7.27c-0.05,-0.03 -0.1,-0.05 -0.16,-0.06l3.19 -0.9c0.17,-0.05 0.34,-0.03 0.49,0.06l12.69 7.21z"></path>
     </g>
     <g id="Group_20252">
      <path id="Path_88153" class="feature-one-fil1" d="M51.92 49.76l-1.87 10.58c-0.06,0.35 0.17,0.68 0.51,0.74 0.1,0.02 0.19,0.01 0.28,-0.01l5.81 -1.65c0.17,-0.05 0.3,-0.15 0.39,-0.31l7.03 -12.79 -12.15 3.44z"></path>
     </g>
     <g id="Group_20253">
      <path id="Path_88154" class="feature-one-fil2" d="M64.07 46.32l-7.03 12.79c-0.08,0.15 -0.22,0.26 -0.39,0.31l-3.11 0.88c0.07,-0.06 0.13,-0.13 0.17,-0.21l7.06 -12.84 3.29 -0.93z"></path>
     </g>
     <g id="Group_20254">
      <path id="Path_88155" class="feature-one-fil1" d="M23.9 34.68l-1.22 0.34c-0.58,0.16 -0.92,0.77 -0.76,1.35 0,0 0,0 0,0l2.54 8.94 7.91 -2.24 -4.18 -6.74c-0.9,-1.45 -2.64,-2.12 -4.29,-1.65z"></path>
     </g>
     <g id="Group_20255">
      <path id="Path_88156" class="feature-one-fil2" d="M32.36 43.08l-2.47 0.7 -4.14 -6.69c-0.74,-1.19 -2.05,-1.9 -3.44,-1.88 0.11,-0.09 0.24,-0.15 0.38,-0.19l1.22 -0.35c1.63,-0.46 3.38,0.22 4.28,1.67l4.18 6.74z"></path>
     </g>
     <g id="Group_20256">
      <path id="Path_88157" class="feature-one-fil3" d="M81.23 41.46l-42.26 11.97c-6.25,1.77 -12.75,-1.86 -14.52,-8.11l45.75 -15.31c0.26,-0.07 0.52,-0.14 0.79,-0.17 3.35,-0.7 6.71,1.17 7.88,4.39l0.28 -0.08c1.91,-0.54 3.9,0.57 4.44,2.48l0.11 0.4c0.54,1.9 -0.57,3.89 -2.48,4.43 0,0 0,0 0,0z"></path>
     </g>
     <g id="Group_20257">
      <path id="Path_88158" class="feature-one-fil4" d="M81.23 41.46l-1.99 0.57c1.52,-0.82 2.26,-2.57 1.79,-4.23l-0.12 -0.41c-0.55,-1.95 -2.45,-2.56 -4.39,-2.01l-0.28 0.08c-0.12,-0.32 -0.25,-0.62 -0.41,-0.92 -1.36,-2.34 -4.01,-4.23 -6.63,-4.19l1.02 -0.34c3.56,-1.17 7.4,0.69 8.67,4.22l0.28 -0.08c1.91,-0.54 3.9,0.57 4.44,2.48 0,0 0,0 0,0l0.11 0.39c0.54,1.91 -0.57,3.9 -2.48,4.44z"></path>
     </g>
     <g id="Group_20258">
      <path id="Path_88159" class="feature-one-fil3" d="M35.52 25.75c1.35,0 2.45,-1.1 2.45,-2.45 0,-1.35 -1.1,-2.45 -2.45,-2.45 -0.24,0 -0.48,0.03 -0.7,0.1 -0.64,-1.9 -2.7,-2.93 -4.61,-2.29 -1.09,0.37 -1.94,1.22 -2.3,2.29 -1.3,-0.39 -2.66,0.35 -3.06,1.65 -0.39,1.3 0.35,2.66 1.64,3.06 0.23,0.07 0.46,0.1 0.7,0.1l8.32 0 0 -0.01z"></path>
     </g>
     <g id="Group_20259">
      <path id="Path_88160" class="feature-one-fil5" d="M37.97 23.31c0,1.09 -0.72,2.05 -1.77,2.35 0.06,-0.21 0.08,-0.42 0.08,-0.64 0,-1.35 -1.1,-2.45 -2.45,-2.45l-0.01 0c-0.41,0 -0.78,-0.21 -1,-0.57 -0.96,-1.66 -3.04,-2.29 -4.76,-1.44 0.86,-1.82 3.02,-2.6 4.84,-1.74 0.9,0.42 1.58,1.19 1.9,2.14 1.3,-0.39 2.66,0.35 3.06,1.64 0.07,0.23 0.1,0.46 0.1,0.71l0 0z"></path>
     </g>
     <g id="Group_20260">
      <path id="Path_88161" class="feature-one-fil3" d="M78.86 24.84c2.13,0 3.86,-1.72 3.87,-3.85 0,-2.13 -1.72,-3.86 -3.85,-3.87 -0.38,0 -0.76,0.06 -1.12,0.17 -1.01,-3 -4.25,-4.62 -7.25,-3.62 -1.7,0.57 -3.04,1.91 -3.62,3.62 -2.04,-0.62 -4.19,0.53 -4.81,2.57 -0.62,2.04 0.53,4.19 2.58,4.81 0.37,0.11 0.75,0.17 1.13,0.17l13.07 0z"></path>
     </g>
     <g id="Group_20261">
      <path id="Path_88162" class="feature-one-fil5" d="M82.72 20.82c0.07,1.65 -0.93,3.17 -2.48,3.76 0.77,-1.99 -0.23,-4.22 -2.22,-4.99 -0.28,-0.11 -0.59,-0.19 -0.89,-0.23 -0.28,-0.03 -0.55,-0.04 -0.83,-0.02 -0.45,0.04 -0.89,-0.19 -1.09,-0.6 -1.42,-2.82 -4.86,-3.96 -7.68,-2.54 -0.07,0.03 -0.14,0.07 -0.21,0.11 1.54,-2.77 5.03,-3.76 7.79,-2.22 1.25,0.69 2.19,1.83 2.64,3.18 2.04,-0.61 4.19,0.55 4.81,2.59 0.1,0.3 0.15,0.62 0.17,0.95l0 0z"></path>
     </g>
     <g id="Group_20264">
      <g id="Group_20262">
       <path id="Path_88163" class="feature-one-fil3" d="M76.07 76.25c2.91,0 5.26,-2.35 5.26,-5.26 0,-2.91 -2.35,-5.26 -5.26,-5.26 -0.51,0 -1.02,0.08 -1.51,0.23 -1.38,-4.09 -5.8,-6.29 -9.9,-4.92 -2.32,0.78 -4.14,2.6 -4.92,4.92 -2.79,-0.84 -5.72,0.74 -6.56,3.53 -0.84,2.79 0.74,5.72 3.53,6.56 0.49,0.15 1,0.23 1.51,0.23l17.84 0 0 -0.01z"></path>
      </g>
      <g id="Group_20263">
       <path id="Path_88164" class="feature-one-fil5" d="M81.34 70.99c0,2.26 -1.45,4.28 -3.6,4.99 0.71,-0.92 1.09,-2.05 1.09,-3.21 0,-2.91 -2.08,-4.57 -4.99,-4.57 -0.23,0 -0.46,0.01 -0.69,0.04 -0.48,0.06 -0.95,-0.19 -1.16,-0.64 -1.28,-2.77 -4.21,-5.19 -7.35,-5.19 -1.09,0 -2.17,0.23 -3.17,0.67 2.96,-3.14 7.9,-3.28 11.04,-0.33 0.93,0.88 1.63,1.98 2.05,3.19 2.79,-0.84 5.72,0.75 6.56,3.53 0.15,0.5 0.23,1 0.23,1.51l0 0z"></path>
      </g>
     </g>
     <g id="Group_20265">
      <path id="Path_88165" class="feature-one-fil1" d="M78.88 34.22l-6.45 1.82c-0.69,0.2 -1.42,-0.21 -1.62,-0.89 -0.01,-0.05 -0.03,-0.1 -0.03,-0.15 -0.28,-1.72 -0.21,-3.49 0.22,-5.18 3.35,-0.7 6.71,1.18 7.88,4.4z"></path>
     </g>
     <g id="Group_20266">
      <path id="Path_88166" class="feature-one-fil2" d="M78.88 34.22l-2.82 0.8c-0.06,-0.17 -0.14,-0.32 -0.23,-0.48 -1.1,-1.91 -2.89,-3.33 -4.99,-3.98 0.07,-0.38 0.14,-0.64 0.17,-0.74 2.98,-0.5 5.96,0.89 7.48,3.5 0.15,0.29 0.28,0.59 0.4,0.89z"></path>
     </g>
     <g id="Group_20267">
      <path id="Path_88167" class="feature-one-fil0" d="M27.21 26.7l8.31 0c1.88,0.03 3.42,-1.47 3.45,-3.35 0.03,-1.88 -1.47,-3.42 -3.35,-3.45 -0.03,0 -0.06,0 -0.1,0 -0.05,0 -0.09,0 -0.14,0 -1.22,-2.22 -4.01,-3.03 -6.23,-1.81 -0.77,0.42 -1.39,1.05 -1.81,1.81 -0.05,0 -0.09,0 -0.14,0 -1.88,0.03 -3.38,1.57 -3.35,3.45 0.03,1.84 1.51,3.33 3.35,3.35l0 0zm0 -4.9c0.15,0 0.29,0.02 0.43,0.06 0.49,0.15 1.01,-0.12 1.17,-0.6 0.48,-1.41 2,-2.17 3.41,-1.69 0.8,0.27 1.43,0.89 1.69,1.69 0.16,0.48 0.68,0.75 1.17,0.6 0.8,-0.24 1.63,0.21 1.87,1 0.24,0.8 -0.21,1.63 -1,1.87 -0.14,0.04 -0.29,0.06 -0.44,0.06l-8.31 0c-0.83,0 -1.51,-0.68 -1.51,-1.51 0,-0.82 0.68,-1.5 1.51,-1.5l0 0z"></path>
      <path id="Path_88168" class="feature-one-fil0" d="M65.78 25.79l6.79 0c0.52,-0.01 0.94,-0.45 0.93,-0.97 -0.01,-0.5 -0.42,-0.91 -0.93,-0.93l-6.79 0c-1.61,0 -2.91,-1.3 -2.91,-2.91 0,-1.61 1.3,-2.91 2.91,-2.91 0.28,0 0.57,0.04 0.84,0.12 0.49,0.15 1.01,-0.12 1.17,-0.6 0.84,-2.5 3.55,-3.85 6.05,-3 1.42,0.48 2.53,1.59 3,3 0.16,0.48 0.68,0.75 1.17,0.6 1.54,-0.46 3.17,0.41 3.62,1.95 0.46,1.54 -0.41,3.17 -1.95,3.62 -0.27,0.08 -0.55,0.12 -0.84,0.12l-1.89 0c-0.52,0.01 -0.94,0.45 -0.93,0.97 0.01,0.5 0.42,0.91 0.93,0.93l1.89 0c2.66,0 4.81,-2.15 4.81,-4.81 0,-2.66 -2.15,-4.81 -4.81,-4.81 -0.18,0 -0.36,0.01 -0.53,0.03 -1.61,-3.32 -5.6,-4.71 -8.92,-3.1 -1.35,0.66 -2.44,1.75 -3.1,3.1 -2.64,-0.3 -5.02,1.61 -5.31,4.25 -0.29,2.64 1.61,5.02 4.25,5.31 0.18,0.02 0.36,0.03 0.54,0.03l0 0z"></path>
      <path id="Path_88169" class="feature-one-fil0" d="M76.08 64.78c-0.31,0 -0.62,0.03 -0.93,0.07 -1.98,-4.41 -7.17,-6.38 -11.58,-4.4 -1.96,0.88 -3.52,2.44 -4.4,4.4 -3.39,-0.51 -6.56,1.83 -7.06,5.22 -0.5,3.39 1.83,6.56 5.22,7.06 0.3,0.04 0.6,0.07 0.91,0.07l17.84 0c3.43,0.07 6.27,-2.65 6.34,-6.08 0.07,-3.43 -2.65,-6.27 -6.08,-6.34 -0.09,0 -0.17,0 -0.26,-0.01l0 0zm0 10.53l-17.84 0c-2.38,-0.01 -4.3,-1.94 -4.3,-4.32 0.01,-2.38 1.94,-4.3 4.32,-4.3 0.41,0 0.82,0.06 1.21,0.18 0.49,0.15 1.01,-0.12 1.17,-0.6 1.21,-3.59 5.1,-5.53 8.69,-4.32 2.03,0.68 3.63,2.28 4.32,4.32 0.16,0.48 0.68,0.75 1.17,0.6 2.28,-0.68 4.68,0.62 5.36,2.91 0.68,2.28 -0.62,4.68 -2.91,5.36 -0.38,0.11 -0.79,0.17 -1.2,0.17l0 0z"></path>
      <path id="Path_88170" class="feature-one-fil0" d="M84.61 36.76c-0.03,-0.14 -0.06,-0.26 -0.1,-0.4 -0.62,-2.21 -2.8,-3.6 -5.07,-3.26 -0.05,-0.1 -0.1,-0.19 -0.14,-0.26 -1.9,-3.24 -5.74,-4.78 -9.35,-3.76l-11.15 3.73 -10.13 -5.76c-0.37,-0.21 -0.8,-0.26 -1.22,-0.15l-5.81 1.64c-0.84,0.24 -1.33,1.12 -1.09,1.96 0.06,0.23 0.18,0.44 0.34,0.62l5.26 5.91 -13.59 4.55 -3.58 -5.77c-1.13,-1.8 -3.3,-2.64 -5.35,-2.07l-1.22 0.35c-1.09,0.31 -1.72,1.44 -1.41,2.53l2.53 8.94c0.55,1.94 1.56,3.73 2.93,5.21 0.36,0.38 0.96,0.41 1.34,0.04 0.38,-0.36 0.41,-0.96 0.04,-1.34l0 0c-0.97,-1.03 -1.72,-2.25 -2.21,-3.57l44.13 -14.77c-0.17,1.33 -0.15,2.68 0.06,4.01 0.2,1.23 1.36,2.07 2.59,1.86 0.08,-0.01 0.17,-0.03 0.25,-0.06l6.72 -1.9c1.41,-0.4 2.87,0.42 3.27,1.83 0,0 0,0 0,0 0.3,0.78 0.25,1.66 -0.12,2.41 -0.34,0.61 -0.91,1.07 -1.59,1.25l-42.26 11.97c-2.5,0.71 -5.17,0.49 -7.52,-0.6 -0.48,-0.21 -1.04,0 -1.25,0.48 -0.21,0.46 -0.01,1.02 0.45,1.24 2.77,1.29 5.9,1.54 8.84,0.71l11.49 -3.26 -1.61 9.09c-0.15,0.86 0.42,1.69 1.29,1.84 0.09,0.01 0.18,0.03 0.27,0.03 0.15,0 0.3,-0.02 0.44,-0.06l5.81 -1.65c0.41,-0.12 0.75,-0.39 0.96,-0.77l6.84 -12.44 16.78 -4.75c1.16,-0.33 2.14,-1.1 2.73,-2.16 0.57,-1.06 0.71,-2.3 0.39,-3.45l0 0zm-59.52 7.34l-2.26 -7.98c-0.02,-0.08 0.03,-0.15 0.1,-0.18l1.22 -0.35c1.23,-0.34 2.54,0.16 3.22,1.25l3.34 5.39 -5.61 1.87zm23.01 -7.7l-5.47 -6.14 5.21 -1.47 8.54 4.85 -8.27 2.77zm24.06 -1.26c-0.1,0.03 -0.21,0.01 -0.3,-0.04 -0.08,-0.05 -0.14,-0.14 -0.15,-0.24 -0.22,-1.38 -0.2,-2.79 0.05,-4.16l0.06 -0.01c0.5,-0.03 0.98,0 1.47,0.09 0.77,0.14 1.51,0.42 2.18,0.83 0.76,0.46 1.41,1.07 1.92,1.81 0.05,0.06 0.08,0.13 0.13,0.19l0.01 0.01 -5.37 1.52zm-15.9 23.41l-5.21 1.47 1.69 -9.5 9.39 -2.66 -5.87 10.69z"></path>
      <path id="Path_88171" class="feature-one-fil6" d="M41.52 46.83c0.67,-0.19 1.06,-0.88 0.87,-1.55 -0.19,-0.67 -0.88,-1.06 -1.55,-0.87 -0.67,0.19 -1.06,0.88 -0.87,1.55 0,0 0,0 0,0 0.19,0.67 0.88,1.06 1.55,0.87z"></path>
      <circle id="Ellipse_795" class="feature-one-fil6" cx="46.12" cy="44.23" r="1.25"></circle>
      <path id="Path_88172" class="feature-one-fil6" d="M51.41 44.02c0.67,-0.19 1.06,-0.88 0.87,-1.55 -0.19,-0.67 -0.88,-1.06 -1.55,-0.87 -0.67,0.19 -1.06,0.88 -0.87,1.55 0,0 0,0 0,0 0.19,0.68 0.88,1.06 1.55,0.87z"></path>
      <path id="Path_88173" class="feature-one-fil6" d="M56.35 42.62c0.67,-0.19 1.06,-0.88 0.87,-1.55 -0.19,-0.67 -0.88,-1.06 -1.55,-0.87 -0.67,0.19 -1.06,0.88 -0.87,1.55 0,0 0,0 0,0 0.19,0.67 0.89,1.06 1.55,0.87z"></path>
      <path id="Path_88174" class="feature-one-fil6" d="M61.3 41.22c0.67,-0.19 1.06,-0.88 0.87,-1.55 -0.19,-0.67 -0.89,-1.05 -1.55,-0.86 -0.66,0.19 -1.06,0.88 -0.87,1.55 0,0 0,0 0,0 0.19,0.66 0.88,1.06 1.55,0.86z"></path>
      <path id="Path_88175" class="feature-one-fil6" d="M66.24 39.83c0.67,-0.19 1.06,-0.88 0.87,-1.55 -0.19,-0.67 -0.88,-1.06 -1.55,-0.87 -0.67,0.19 -1.06,0.88 -0.87,1.55 0,0 0,0 0,0 0.19,0.67 0.89,1.05 1.55,0.87z"></path>
      <path id="Path_88176" class="feature-one-fil0" d="M27.32 55.46c0.52,0.01 0.96,-0.4 0.97,-0.93 0.01,-0.52 -0.4,-0.96 -0.93,-0.97 -0.02,0 -0.03,0 -0.05,0l-3.46 0c-0.52,-0.01 -0.96,0.4 -0.97,0.93 -0.01,0.52 0.4,0.96 0.93,0.97 0.02,0 0.03,0 0.05,0l3.45 0z"></path>
      <path id="Path_88177" class="feature-one-fil0" d="M73.76 49.38c0.52,0.01 0.96,-0.4 0.97,-0.93 0.01,-0.52 -0.4,-0.96 -0.93,-0.97 -0.02,0 -0.03,0 -0.05,0l-3.47 0c-0.52,0.01 -0.94,0.45 -0.93,0.97 0.01,0.5 0.42,0.91 0.93,0.93l3.47 0z"></path>
      <path id="Path_88178" class="feature-one-fil0" d="M64.71 51.94c0,0.52 0.42,0.95 0.95,0.95 0,0 0,0 0,0l6.67 0c0.52,0.01 0.96,-0.4 0.97,-0.93 0.01,-0.52 -0.4,-0.96 -0.93,-0.97 -0.02,0 -0.03,0 -0.05,0l-6.66 0c-0.52,0 -0.95,0.42 -0.95,0.95 0,0 0,0 0,0z"></path>
      <path id="Path_88179" class="feature-one-fil0" d="M29.44 57.17l-8.48 0c-0.52,-0.01 -0.96,0.4 -0.97,0.93 -0.01,0.52 0.4,0.96 0.93,0.97 0.02,0 0.03,0 0.05,0l8.48 0c0.52,0.01 0.96,-0.4 0.97,-0.93 0.01,-0.52 -0.4,-0.96 -0.93,-0.97 -0.02,0 -0.03,0 -0.05,0z"></path>
     </g>
    </g>
   </g>
  </g>
 </g>
</svg>