<svg xmlns="http://www.w3.org/2000/svg" xml:space="preserve" width="1.78106in" height="1.49419in" version="1.1" style="shape-rendering:geometricPrecision; text-rendering:geometricPrecision; image-rendering:optimizeQuality; fill-rule:evenodd; clip-rule:evenodd" viewBox="0 0 104.96 88.05" xmlns:xlink="http://www.w3.org/1999/xlink">
    <defs>
     <style type="text/css">
      
       .feature-two-fil0 {fill:rgba(2,33,49,.89)}
       .feature-two-fil3 {fill:#DDDDDD}
       .feature-two-fil2 {fill:#f9f7f7}
       .feature-two-fil5 {fill:#f06192}
       .feature-two-fil4 {fill:#DDDDDD}
       .feature-two-fil1 {fill:#f9f7f7}
      
     </style>
    </defs>
    <g id="Layer_x0020_1">
     <metadata id="CorelCorpID_0Corel-Layer"></metadata>
     <g id="_1943958730832">
      <g id="Group_21003">
       <g id="Group_20386">
        <path id="Path_88220" class="feature-two-fil0" d="M103.79 22.01c2.81,13.77 0.43,28.51 -6.09,41.05 -21.88,42.04 -80.93,26.53 -95.47,-13.1 -2.51,-6.86 -3.6,-15.02 0.48,-21.08 4.58,-6.8 13.86,-8.42 22.06,-8.27 8.2,0.16 16.77,1.42 24.3,-1.82 12.6,-5.43 17.92,-20.17 33.71,-18.69 12.5,1.16 18.68,10.56 21.01,21.91z"></path>
       </g>
       <g id="flying-money">
        <path id="Path_88258" class="feature-two-fil1" d="M53.63 21.73l-5.84 0.04c-8.72,0.06 -17.21,2.79 -24.32,7.82l-0.06 0.03c-1.03,0.73 -1.28,2.16 -0.55,3.19 0.08,0.11 0.17,0.22 0.27,0.31l0.04 0.04c0.66,0.66 1.65,0.86 2.52,0.51l3.66 -1.46c0.18,-0.07 0.39,0.01 0.46,0.2 0.05,0.13 0.03,0.28 -0.08,0.38l-2.63 2.69c-1,1.03 -0.98,2.68 0.05,3.68 0.08,0.08 0.17,0.15 0.25,0.22l0.04 0.03c0.75,0.57 1.74,0.69 2.6,0.32l4.58 -1.97c0.22,-0.1 0.49,0.01 0.58,0.23 0.06,0.14 0.04,0.3 -0.04,0.43l-2.97 4.43c-0.65,0.98 -0.39,2.3 0.58,2.97 0.58,0.39 1.3,0.47 1.95,0.22l5.59 -2.13 18.47 -11.22 -5.15 -10.96z"></path>
        <path id="Path_88259" class="feature-two-fil1" d="M57.38 29.69l-3.75 -7.96 -5.64 0.04 -14.6 24.31c0.44,0.13 0.91,0.1 1.34,-0.06l5.59 -2.13 13.42 -8.15 3.64 -6.06z"></path>
        <path id="Path_88260" class="feature-two-fil1" d="M75.26 34.72l2.7 5.17c4.04,7.73 5.62,16.5 4.53,25.15l-0.01 0.06c-0.16,1.26 -1.31,2.15 -2.56,1.99 -0.13,-0.02 -0.27,-0.04 -0.4,-0.09l-0.05 -0.01c-0.89,-0.27 -1.54,-1.05 -1.64,-1.98 -0.13,-1.15 -0.3,-2.73 -0.43,-3.92 -0.02,-0.2 -0.2,-0.34 -0.39,-0.31 -0.14,0.01 -0.26,0.11 -0.3,0.25l-1.14 3.59c-0.44,1.37 -1.9,2.12 -3.28,1.68 -0.1,-0.03 -0.2,-0.08 -0.3,-0.12l-0.05 -0.03c-0.85,-0.39 -1.42,-1.21 -1.5,-2.15l-0.41 -4.96c-0.02,-0.25 -0.24,-0.43 -0.48,-0.41 -0.15,0.01 -0.29,0.1 -0.36,0.24l-2.51 4.69c-0.56,1.04 -1.85,1.43 -2.89,0.88 -0.61,-0.33 -1.02,-0.93 -1.11,-1.62l-0.74 -5.94 1.23 -21.57 12.09 -0.6z"></path>
        <path id="Path_88261" class="feature-two-fil1" d="M66.48 35.16l8.79 -0.43 2.61 5 -14.6 24.31c-0.32,-0.33 -0.52,-0.76 -0.58,-1.21l-0.74 -5.94 0.89 -15.68 3.64 -6.06z"></path>
        <path id="Path_88262" class="feature-two-fil2" d="M29.81 59.29c-0.6,-0.36 -0.79,-1.14 -0.43,-1.73 0,0 0,0 0,0l25.52 -42.49c0.36,-0.6 1.14,-0.79 1.73,-0.43 0,0 0,0 0,0l23.49 14.11c0.6,0.36 0.79,1.14 0.43,1.73 0,0 0,0 0,0l-25.52 42.49c-0.36,0.6 -1.14,0.79 -1.73,0.43 0,0 0,0 0,0l-23.49 -14.11z"></path>
        <path id="Path_88263" class="feature-two-fil3" d="M80.56 30.48c0.36,-0.6 0.17,-1.38 -0.43,-1.73 0,0 0,0 0,0l-2.15 -1.29c0.6,0.36 0.79,1.14 0.43,1.73 0,0 0,0 0,0l-25.52 42.49c-0.36,0.6 -1.14,0.79 -1.73,0.43 0,0 0,0 0,0l2.15 1.29c0.6,0.36 1.38,0.17 1.73,-0.43 0,0 0,0 0,0l25.52 -42.49z"></path>
        <path id="Path_88264" class="feature-two-fil1" d="M38.53 60.2l9.88 5.94c1.56,-2.6 4.93,-3.44 7.54,-1.88l17.35 -28.87c-2.6,-1.56 -3.44,-4.93 -1.88,-7.54l-9.88 -5.94c-1.56,2.6 -4.93,3.44 -7.54,1.88l-17.35 28.87c2.6,1.56 3.44,4.94 1.88,7.54z"></path>
        <path id="Path_88265" class="feature-two-fil4" d="M71.4 27.84l-2.58 -1.55c-1.07,1.79 -1.04,4.03 0.08,5.78 0.9,1.41 0.93,3.21 0.06,4.65l-13.87 23.08c-0.86,1.43 -2.46,2.26 -4.13,2.13 -2.08,-0.17 -4.07,0.86 -5.14,2.65l2.58 1.56c1.56,-2.6 4.93,-3.44 7.54,-1.88l17.35 -28.87c-2.6,-1.56 -3.44,-4.93 -1.89,-7.54 0,0 0,0 0,0z"></path>
        <g id="Group_20385">
         <path id="Path_88266" class="feature-two-fil5" d="M57.19 48.12c-0.43,0.27 -0.55,0.83 -0.28,1.26 0.27,0.43 0.83,0.55 1.26,0.28 0.67,-0.46 1.26,-1.03 1.75,-1.68l0.45 0.27c0.43,0.26 0.99,0.12 1.25,-0.31 0.26,-0.43 0.12,-0.99 -0.31,-1.25l-0.56 -0.34c0.03,-0.08 0.04,-0.15 0.06,-0.22 0.28,-1.17 -0.11,-2.4 -1.03,-3.19 -0.77,-0.74 -1.88,-0.98 -2.89,-0.64 -0.53,0.22 -1.04,0.5 -1.51,0.83l-3.61 -2.17c0.32,-0.4 0.74,-0.7 1.21,-0.9 0.45,-0.22 0.64,-0.76 0.43,-1.22 -0.22,-0.45 -0.76,-0.64 -1.22,-0.43l0 0c-0.8,0.34 -1.49,0.89 -1.99,1.59l-0.56 -0.34c-0.43,-0.26 -0.99,-0.12 -1.25,0.31 -0.26,0.43 -0.12,0.99 0.31,1.25l0 0 0.64 0.38c-0.44,1.47 0.02,3.07 1.19,4.07 1.28,1.15 3.23,1.15 4.51,0 0.15,-0.12 0.3,-0.25 0.46,-0.37l2.85 1.71c-0.32,0.43 -0.72,0.79 -1.15,1.1l0 0zm-5.49 -3.81c-0.49,-0.42 -0.76,-1.05 -0.72,-1.7l2.84 1.71c-0.61,0.53 -1.52,0.53 -2.13,-0.01l0 0zm5.84 -0.31c0.37,-0.09 0.76,0.02 1.03,0.3 0.3,0.27 0.49,0.65 0.51,1.05l-1.94 -1.16c0.13,-0.07 0.26,-0.13 0.4,-0.18l0 0z"></path>
         <path id="Path_88267" class="feature-two-fil5" d="M50.08 52.14c-0.43,-0.26 -0.99,-0.12 -1.25,0.31l-1.33 2.2c-0.26,0.43 -0.12,0.99 0.31,1.25 0.43,0.26 0.99,0.12 1.25,-0.31l1.33 -2.2c0.26,-0.43 0.12,-0.99 -0.31,-1.25 0,0 0,0 0,0z"></path>
         <path id="Path_88268" class="feature-two-fil5" d="M61.1 35.58l1.32 -2.2c0.26,-0.43 0.12,-0.99 -0.31,-1.25 -0.43,-0.26 -0.99,-0.12 -1.25,0.31l0 0 -1.32 2.2c-0.26,0.43 -0.12,0.99 0.31,1.25 0.43,0.25 0.99,0.11 1.25,-0.31l0 0z"></path>
         <path id="Path_88269" class="feature-two-fil5" d="M52.97 67.11c-0.43,-0.26 -0.99,-0.12 -1.25,0.31 -0.26,0.43 -0.12,0.99 0.31,1.25l0.21 0.13c0.43,0.26 0.99,0.12 1.25,-0.31 0.26,-0.43 0.12,-0.99 -0.31,-1.25l-0.21 -0.13z"></path>
         <path id="Path_88270" class="feature-two-fil5" d="M35.51 56.63l-0.21 -0.13c-0.43,-0.26 -0.99,-0.12 -1.25,0.31 -0.26,0.43 -0.12,0.99 0.31,1.25l0.21 0.13c0.43,0.26 0.99,0.12 1.25,-0.31 0.26,-0.43 0.12,-0.99 -0.31,-1.25z"></path>
         <path id="Path_88271" class="feature-two-fil5" d="M74.42 31.4l0.21 0.13c0.43,0.26 0.99,0.12 1.25,-0.31 0.26,-0.43 0.12,-0.99 -0.31,-1.25l-0.21 -0.13c-0.43,-0.26 -0.99,-0.12 -1.25,0.31 -0.26,0.43 -0.12,0.99 0.31,1.25l0 0z"></path>
         <path id="Path_88272" class="feature-two-fil5" d="M56.97 20.92c0.44,0.25 1,0.09 1.24,-0.35 0.23,-0.42 0.1,-0.95 -0.3,-1.21l-0.21 -0.13c-0.43,-0.26 -0.99,-0.12 -1.25,0.31 -0.26,0.43 -0.12,0.99 0.31,1.25l0 0 0.22 0.13z"></path>
         <path id="Path_88273" class="feature-two-fil5" d="M71.87 27.06l-9.88 -5.94c-0.43,-0.26 -0.99,-0.12 -1.25,0.31 -1.3,2.17 -4.11,2.87 -6.29,1.57 -0.43,-0.26 -0.99,-0.12 -1.25,0.31l-17.34 28.87c-0.26,0.43 -0.12,0.99 0.31,1.25 2.16,1.3 2.87,4.11 1.57,6.29 -0.26,0.43 -0.12,0.99 0.31,1.25l9.88 5.94c0.43,0.26 0.99,0.12 1.25,-0.31 1.3,-2.17 4.11,-2.87 6.29,-1.57 0.43,0.26 0.99,0.12 1.25,-0.31l3.43 -5.7c0.26,-0.43 0.12,-0.99 -0.31,-1.25 -0.43,-0.26 -0.99,-0.12 -1.25,0.31l-2.99 4.98c-2.62,-1.1 -5.65,-0.34 -7.45,1.86l-8.42 -5.06c1.1,-2.62 0.34,-5.65 -1.86,-7.45l16.47 -27.42c2.62,1.1 5.65,0.34 7.45,-1.86l8.43 5.06c-1.1,2.62 -0.34,5.65 1.86,7.45l-11.61 19.31c-0.26,0.43 -0.12,0.99 0.31,1.25 0.43,0.26 0.99,0.12 1.25,-0.31l0 0 12.04 -20.04c0.26,-0.43 0.12,-0.99 -0.31,-1.25 -2.16,-1.3 -2.87,-4.11 -1.57,-6.29 0.26,-0.43 0.12,-0.99 -0.31,-1.25l0 0z"></path>
         <path id="Path_88274" class="feature-two-fil0" d="M78.77 39.48l-1.19 -2.29 3.76 -6.25c0.62,-1.03 0.29,-2.36 -0.74,-2.98l-14.71 -8.84c-0.43,-0.26 -0.99,-0.12 -1.25,0.31 -0.26,0.43 -0.12,0.99 0.31,1.25l14.7 8.83c0.16,0.1 0.22,0.32 0.12,0.48l-25.52 42.49c-0.1,0.16 -0.32,0.22 -0.48,0.12 0,0 0,0 0,0l-23.49 -14.11c-0.16,-0.1 -0.22,-0.32 -0.12,-0.48l25.52 -42.49c0.1,-0.16 0.32,-0.22 0.48,-0.12l5.63 3.38c0.43,0.27 0.98,0.15 1.27,-0.27 0.27,-0.43 0.15,-0.98 -0.27,-1.26 -0.01,-0.01 -0.01,-0.01 -0.03,-0.01l-5.66 -3.4c-1.03,-0.62 -2.36,-0.29 -2.98,0.74l-3.76 6.25 -2.58 0.02c-6.56,0.06 -13.03,1.59 -18.93,4.48 -0.45,0.22 -0.65,0.76 -0.43,1.21 0.22,0.45 0.76,0.65 1.21,0.43 0.01,0 0.01,-0.01 0.02,-0.01 5.65,-2.77 11.85,-4.23 18.14,-4.29l1.46 -0.01 -12.16 20.28c-0.61,1.01 -1.54,1.78 -2.63,2.21 -0.37,0.15 -0.79,0.11 -1.13,-0.1 -0.57,-0.36 -0.74,-1.12 -0.38,-1.69 0.01,-0.01 0.01,-0.02 0.02,-0.03l2.96 -4.43c0.42,-0.62 0.25,-1.47 -0.37,-1.88 -0.38,-0.25 -0.87,-0.3 -1.29,-0.12l-4.58 1.97c-0.9,0.36 -1.92,-0.06 -2.28,-0.96 -0.06,-0.16 -0.11,-0.33 -0.12,-0.5 -0.04,-0.48 0.13,-0.96 0.48,-1.31l2.63 -2.69c0.49,-0.5 0.48,-1.3 -0.02,-1.79 -0.36,-0.35 -0.89,-0.46 -1.35,-0.27l-3.67 1.45c-0.76,0.29 -1.6,-0.09 -1.89,-0.84 -0.08,-0.19 -0.11,-0.4 -0.1,-0.6 0.04,-0.43 0.27,-0.82 0.63,-1.05 0.76,-0.53 1.56,-1.05 2.37,-1.56 0.4,-0.23 0.57,-0.73 0.39,-1.16 -0.2,-0.46 -0.74,-0.67 -1.2,-0.47 -0.04,0.02 -0.07,0.03 -0.11,0.06 -1.4,0.85 -2.28,1.49 -2.56,1.68 -0.77,0.55 -1.27,1.42 -1.35,2.36 -0.13,1.81 1.24,3.38 3.05,3.5 0.48,0.03 0.97,-0.04 1.42,-0.22l1.21 -0.48 -0.79 0.81c-0.7,0.72 -1.07,1.71 -0.99,2.72 0.17,1.97 1.89,3.43 3.86,3.26 0.37,-0.03 0.74,-0.12 1.08,-0.27l3.12 -1.35 -2.08 3.11c-0.54,0.8 -0.67,1.8 -0.34,2.71 0.18,0.53 0.51,0.99 0.94,1.34 0.73,0.6 1.7,0.83 2.62,0.61l-6.06 10.08c-0.62,1.03 -0.29,2.36 0.74,2.98l23.49 14.11c1.03,0.62 2.36,0.29 2.98,-0.74 0,0 0,0 0,0l6.06 -10.08c0.44,1.63 2.11,2.58 3.74,2.14 0.81,-0.22 1.49,-0.76 1.89,-1.5l1.77 -3.3 0.28 3.39c0.18,1.96 1.92,3.41 3.89,3.23 0.37,-0.03 0.74,-0.13 1.08,-0.27 0.93,-0.41 1.63,-1.19 1.94,-2.15l0.34 -1.07c0.05,0.46 0.1,0.9 0.14,1.3 0.21,1.8 1.84,3.1 3.65,2.88 0.48,-0.06 0.95,-0.22 1.36,-0.48 0.8,-0.51 1.33,-1.35 1.45,-2.3 1.15,-8.83 -0.46,-17.82 -4.6,-25.73l0 0zm2.81 25.52c-0.1,0.76 -0.79,1.29 -1.54,1.19 -0.08,-0.01 -0.16,-0.03 -0.24,-0.05 -0.56,-0.16 -0.98,-0.64 -1.05,-1.23 -0.13,-1.15 -0.3,-2.73 -0.43,-3.92 -0.08,-0.69 -0.7,-1.19 -1.4,-1.12 -0.5,0.06 -0.91,0.39 -1.07,0.87l-1.14 3.59c-0.31,0.9 -1.3,1.38 -2.2,1.07 -0.64,-0.22 -1.09,-0.79 -1.16,-1.47l-0.41 -4.96c-0.06,-0.75 -0.72,-1.3 -1.46,-1.24 -0.46,0.04 -0.87,0.3 -1.09,0.71l-2.51 4.69c-0.32,0.6 -1.06,0.82 -1.66,0.5 -0.03,-0.02 -0.06,-0.04 -0.1,-0.06 -0.31,-0.21 -0.51,-0.54 -0.55,-0.91l0 0c-0.15,-1.17 0.1,-2.36 0.71,-3.36l12.18 -20.27 0.68 1.3c3.99,7.57 5.53,16.18 4.43,24.67z"></path>
         <path id="Path_88275" class="feature-two-fil5" d="M34.79 30.78c0.04,-0.03 4.5,-2.79 8.66,-1.73 0.49,0.12 0.98,-0.17 1.1,-0.66 0.12,-0.49 -0.17,-0.98 -0.66,-1.1 -4.91,-1.24 -9.87,1.83 -10.08,1.96 -0.43,0.27 -0.55,0.83 -0.29,1.26 0.27,0.43 0.83,0.55 1.26,0.29z"></path>
         <path id="Path_88276" class="feature-two-fil5" d="M72.9 47.06c-0.43,0.27 -0.55,0.83 -0.28,1.26 0,0 0,0 0,0 2.3,3.6 1.09,8.7 1.08,8.77 -0.12,0.49 0.18,0.98 0.67,1.1 0.49,0.12 0.98,-0.18 1.1,-0.67 0.06,-0.24 1.42,-5.91 -1.31,-10.18 -0.27,-0.43 -0.83,-0.55 -1.26,-0.28 0,-0.01 0,0 0,0z"></path>
        </g>
       </g>
      </g>
     </g>
    </g>
   </svg>