 <svg xmlns="http://www.w3.org/2000/svg" xml:space="preserve" width="1.7811in" height="1.4448in" version="1.1" style="shape-rendering:geometricPrecision; text-rendering:geometricPrecision; image-rendering:optimizeQuality; fill-rule:evenodd; clip-rule:evenodd" viewBox="0 0 207.18 168.06" xmlns:xlink="http://www.w3.org/1999/xlink">
    <defs>
     <style type="text/css">
      
       .feature-three-fil0 {fill:rgba(2,33,49,.89)}
       .feature-three-fil2 {fill:#f06192}
       .feature-three-fil3 {fill:#f06192}
       .feature-three-fil4 {fill:#1A120B}
       .feature-three-fil1 {fill:#f9f7f7}
      
     </style>
    </defs>
    <g id="Layer_x0020_1">
     <metadata id="CorelCorpID_0Corel-Layer"></metadata>
     <g id="_1979937737856">
      <g id="_2728914834784">
       <g id="Group_21004">
        <g id="Group_20394">
         <path id="Path_88217" class="feature-three-fil0" d="M5.07 149.71c4.37,9.06 12.7,16.66 22.66,18.09 12.03,1.73 23.49,-5.5 32.73,-13.41 9.25,-7.91 18.09,-17.11 29.74,-20.64 20.83,-6.31 42.38,7.48 64.14,7.61 14.4,0.01 28.15,-5.94 38.02,-16.42 36.05,-38.77 0.1,-100.97 -41.21,-118.06 -33.34,-13.77 -73.28,-5.97 -102.46,15.25 -27.84,20.25 -44.97,55.78 -48.15,90.06 -0.25,2.69 -0.41,5.38 -0.48,8.05 -0.3,10.07 0.64,20.42 5.02,29.47l0 0z"></path>
        </g>
        <g id="satisfaction">
         <path id="Path_88277" class="feature-three-fil1" d="M95.45 27.55l48.51 0c8.68,-0.01 15.73,7.02 15.74,15.69l0 37.8c-0.01,8.68 -7.05,15.7 -15.74,15.69l0 0 -19.72 0c0,8.48 -5.68,11.05 -12.62,11.05 -0.45,0 -0.41,-0.68 0.01,-0.8 6.35,-1.78 4.25,-10.26 4.25,-10.26l-20.44 0c-8.68,0.01 -15.73,-7.02 -15.74,-15.69 0,0 0,0 0,0l0 -37.79c0.01,-8.69 7.07,-15.7 15.74,-15.69l0 0 0 -0z"></path>
         <g id="Group_20387">
          <path id="Path_88278" class="feature-three-fil1" d="M143.95 27.55l-6.81 0c8.68,-0.01 15.73,7.02 15.74,15.69 0,0 0,0 0,0l0 37.8c-0.01,8.68 -7.07,15.7 -15.74,15.69l0 0 6.82 0c8.68,0.01 15.73,-7.02 15.74,-15.69 0,0 0,0 0,0l0 -37.8c-0.02,-8.68 -7.07,-15.7 -15.75,-15.69 0,0 0,0 0,0l0 -0z"></path>
         </g>
         <g id="Group_20389">
          <g id="Group_20388">
           <path id="Path_88279" class="feature-three-fil1" d="M57.2 81.79c0,4.14 -2.5,7.5 -5.57,7.5 -3.08,0 -4.86,-3.87 -4.86,-8 0,-4.13 1.78,-7.01 4.86,-7.01 3.08,0 5.57,3.36 5.57,7.5l0 -0z"></path>
           <path id="Path_88280" class="feature-three-fil1" d="M92.22 81.79c0,4.14 2.5,7.5 5.57,7.5 3.08,0 4.86,-3.85 4.86,-8 0,-4.15 -1.78,-7.01 -4.85,-7.01 -3.07,0 -5.59,3.36 -5.59,7.5l0 -0z"></path>
          </g>
         </g>
         <rect id="Rectangle_59" class="feature-three-fil1" x="69.03" y="105.02" width="11.37" height="18.18"></rect>
         <path id="Path_88281" class="feature-three-fil1" d="M54.26 88.66l0 -15.23c0,-10.66 8.64,-19.3 19.29,-19.3l0 0 2.3 0c10.66,0 19.29,8.64 19.29,19.3l0 0 0 15.23c0,11.29 -9.16,20.46 -20.46,20.46l0 0c-11.27,0 -20.43,-9.16 -20.43,-20.46l0 0z"></path>
         <path id="Path_88283" class="feature-three-fil1" d="M101.3 136.64l0 3.84 -53.18 0 0 -3.84c0,-11.16 7.86,-20.21 17.56,-20.21l18.04 0c9.71,-0.01 17.57,9.04 17.57,20.21z"></path>
         <polygon id="Path_88285" class="feature-three-fil2" points="66.19,116.41 83.23,116.41 74.71,140.48 "></polygon>
         <path id="Path_88288" class="feature-three-fil1" d="M54.17 77.51c0,0 1.7,0.69 3.44,-2.59 2,-3.74 7.26,-5.84 13.57,-5.61 7.83,0.28 11.04,-2.47 12.6,-5.23 2.14,7.1 5.17,5.23 7.14,11.29 0.29,1.59 1.81,2.64 3.39,2.36 0.24,-0.05 0.47,-0.11 0.69,-0.22 0,0 8.13,-4.71 3.94,-12.2 0.7,-15.05 -11.09,-15.95 -11.09,-15.95 0,0 -5.39,-6.85 -20.19,-3.28 -21.33,5.14 -17.53,20.13 -17.53,20.13 0,0 -3.67,7.1 4.04,11.31l0 0z"></path>
         <g id="Group_20391">
          <path id="Path_88289" class="feature-three-fil1" d="M98.96 65.3c0.73,-15.05 -11.09,-15.95 -11.09,-15.95 0,0 -4.29,-5.45 -15.72,-4.1 6.37,0.87 8.91,4.1 8.91,4.1 0,0 11.8,0.9 11.09,15.95 1.98,3.2 1.45,7.34 -1.25,9.96l0.04 0.11c0.29,1.59 1.81,2.64 3.39,2.36 0.24,-0.05 0.47,-0.11 0.69,-0.22 0,-0.01 8.13,-4.73 3.94,-12.22l0 -0z"></path>
         </g>
         <path id="Path_88290" class="feature-three-fil1" d="M137.45 49.63c-2.35,-1.82 -4.17,-4.22 -5.26,-6.97l-2.86 -7.13c-0.29,-0.76 -1.45,-0.76 -3.27,-0.29l0 0c-1.82,0.47 -3.08,2.61 -1.71,7.02l1.05 4.08c0.17,0.65 -0.21,1.33 -0.85,1.55 -2.63,0.73 -5.34,1.1 -8.07,1.11l-6.35 0c-1.84,-0.02 -3.38,1.41 -3.5,3.24 -0.08,1.71 1.12,3.21 2.8,3.51 0.02,0.01 0.05,0.04 0.04,0.06 0,0.02 -0.02,0.04 -0.04,0.04 -1.68,0.3 -2.88,1.81 -2.8,3.51 0.12,1.84 1.66,3.26 3.5,3.25l1.26 0c0.07,-0.01 0.13,0.04 0.15,0.1 0.01,0.07 -0.04,0.13 -0.1,0.15 -1.49,0.42 -2.51,1.79 -2.5,3.34 0.05,1.79 1.53,3.24 3.32,3.24l2.07 0c0.06,0 0.11,0.05 0.12,0.11 0,0.05 -0.02,0.1 -0.07,0.11 -1.49,0.41 -2.54,1.73 -2.63,3.27 0,1.84 1.49,3.33 3.32,3.33 0.01,0 0.01,0 0.02,0l24.14 0c3.15,0 5.7,-2.54 5.7,-5.7l0 0 0 -11.63c-0.04,-3.07 -3.62,-6.33 -7.49,-9.31l-0 0z"></path>
         <g id="Group_20392">
          <path id="Path_88291" class="feature-three-fil3" d="M137.45 49.63c-2.35,-1.81 -4.17,-4.22 -5.27,-6.97l-2.85 -7.13c-0.29,-0.76 -1.45,-0.76 -3.27,-0.29 -1.24,0.32 -2.21,1.41 -2.28,3.44l1.59 3.98c1.1,2.75 2.92,5.16 5.27,6.97 3.87,2.99 7.46,6.24 7.46,9.32l0 11.62c0,3.15 -2.54,5.7 -5.7,5.7l0 0 6.81 0c3.15,0 5.7,-2.54 5.7,-5.7l0 0 0 -11.62c-0.01,-3.08 -3.6,-6.33 -7.46,-9.32l0 0z"></path>
         </g>
         <g id="Group_20393">
          <path id="Path_88292" class="feature-three-fil4" d="M84.56 91.61c-0.87,-0.35 -1.85,0.06 -2.22,0.92 0,0 0,0 0,0 -0.07,0.16 -1.76,3.93 -7.43,3.93 -5.74,0 -7.79,-3.83 -7.89,-4.02 -0.41,-0.85 -1.44,-1.19 -2.28,-0.78 -0.85,0.41 -1.19,1.44 -0.78,2.28l0 0c0.12,0.24 2.98,5.93 10.94,5.93 8.03,0 10.48,-5.79 10.58,-6.03 0.35,-0.86 -0.06,-1.87 -0.93,-2.22l0 0z"></path>
          <path id="Path_88295" class="feature-three-fil0" d="M110.12 47.29c-2.82,-0.06 -5.15,2.19 -5.21,5 -0.02,1.3 0.44,2.54 1.31,3.51 -1.88,2.1 -1.71,5.31 0.39,7.19 0.35,0.32 0.76,0.59 1.19,0.8 -0.39,0.75 -0.58,1.59 -0.57,2.42 0.02,2.07 1.33,3.91 3.28,4.62 -0.3,0.64 -0.47,1.35 -0.48,2.05 -0.02,1.32 0.48,2.59 1.42,3.54 0.96,0.98 2.27,1.53 3.63,1.54l24.14 0c4.08,-0.01 7.38,-3.31 7.39,-7.39l0 -11.63c0,-3.87 -3.9,-7.42 -8.12,-10.68 -2.11,-1.62 -3.73,-3.78 -4.73,-6.25l-2.85 -7.11c-0.94,-2.45 -4.22,-1.6 -5.3,-1.32 -1.21,0.32 -2.24,1.11 -2.84,2.21 -0.94,1.71 -0.97,4.04 -0.08,6.92l0.94 3.66c-2.35,0.58 -4.77,0.9 -7.2,0.92l-6.33 0.01 0 0 0 0zm6.41 3.42c2.88,-0.02 5.77,-0.42 8.54,-1.2 1.5,-0.48 2.38,-2.06 1.98,-3.6l-1.05 -4.08c-0.01,-0.02 -0.01,-0.05 -0.02,-0.09 -0.47,-1.53 -1.02,-4.46 0.51,-4.86 0.47,-0.13 0.96,-0.23 1.45,-0.27l2.67 6.67c1.21,3.03 3.22,5.7 5.82,7.68 1.87,1.44 6.8,5.26 6.8,7.97l0 11.62c0,2.21 -1.79,3.99 -3.99,3.99l-24.15 0c-0.88,0.01 -1.62,-0.7 -1.64,-1.59 0.01,-0.29 0.02,-1.16 1.53,-1.71 0.94,-0.35 1.42,-1.39 1.08,-2.34 -0.27,-0.71 -0.94,-1.19 -1.71,-1.19l-2.07 0c-0.86,0 -1.58,-0.67 -1.61,-1.53 -0.07,-0.96 0.64,-1.81 1.6,-1.88 0.02,0 0.05,0 0.06,0l2.47 0c0.95,0 1.71,-0.76 1.71,-1.71 0,-0.95 -0.76,-1.71 -1.71,-1.71l-4.65 0c-0.93,0.01 -1.72,-0.69 -1.79,-1.62 -0.04,-0.85 0.56,-1.61 1.39,-1.76 0.3,-0.05 0.74,-0.01 4.46,-0.02 0.95,0 1.71,-0.76 1.71,-1.71 0,-0.94 -0.76,-1.71 -1.71,-1.71l-4.16 0c-0.95,0 -1.71,-0.78 -1.7,-1.71 0,-0.02 0,-0.05 0,-0.07 0.09,-0.93 0.87,-1.64 1.79,-1.62l6.4 0.04 0 0 -0 0z"></path>
          <path id="Path_88296" class="feature-three-fil4" d="M143.96 25.84l-26.19 0c-0.94,0 -1.71,0.76 -1.71,1.71 0,0.94 0.76,1.7 1.71,1.7l26.19 0c7.73,0 14.01,6.25 14.03,13.98l0 37.8c-0.02,7.73 -6.3,14 -14.03,13.98l-19.72 0c-0.95,0 -1.71,0.76 -1.71,1.71 0,3.22 -0.73,7.31 -6.1,8.79 1.87,-2.88 1.68,-6.85 1.1,-9.2 -0.19,-0.76 -0.87,-1.3 -1.66,-1.3l-19.95 0c0.4,-1.35 0.68,-2.73 0.82,-4.13 4.92,0.88 7.61,-4.34 7.61,-9.61 0,-3.67 -1.26,-6.46 -3.39,-7.8 1.31,-2.73 1.2,-5.93 -0.29,-8.57 0.27,-8.22 -3.09,-12.47 -5.99,-14.59 -1.78,-1.3 -3.83,-2.17 -5.99,-2.56 -2.05,-1.88 -4.57,-3.18 -7.3,-3.76l0 -0.75c0.02,-7.73 6.3,-14 14.03,-13.99l15.05 0c0.94,0 1.71,-0.76 1.71,-1.71 0,-0.94 -0.76,-1.71 -1.71,-1.71l-15.05 0c-9.62,0 -17.41,7.78 -17.44,17.4l0 0.19c-3.6,-0.25 -7.22,0.07 -10.71,0.97 -2.5,0.58 -4.93,1.42 -7.27,2.48 -0.85,0.4 -1.22,1.42 -0.82,2.27 0.4,0.85 1.42,1.22 2.27,0.82 2.12,-0.97 4.34,-1.72 6.62,-2.25 3.62,-0.97 7.39,-1.22 11.11,-0.73 0.13,0.05 0.28,0.07 0.42,0.07 4.8,0.88 6.79,3.2 6.91,3.33 0.29,0.38 0.74,0.61 1.21,0.64 1.78,0.24 3.48,0.93 4.93,2 3.31,2.44 4.85,6.53 4.58,12.17 -0.01,0.32 0.06,0.63 0.22,0.91 1.41,2.16 1.31,4.96 -0.24,7.02 -0.8,1.11 -1.81,2.07 -2.96,2.82 -0.3,0.11 -0.64,0.11 -0.95,0 -0.39,-0.27 -0.65,-0.68 -0.76,-1.14 -0.65,-2.27 -1.98,-4.29 -3.79,-5.82 -1.67,-1.41 -2.85,-3.32 -3.34,-5.45 -0.27,-0.9 -1.22,-1.41 -2.12,-1.14 -0.42,0.13 -0.78,0.41 -0.99,0.8 -0.65,1.15 -2.63,4.68 -11.05,4.37 -7.07,-0.25 -12.86,2.24 -15.14,6.52 -0.29,0.7 -0.8,1.31 -1.44,1.72 -5.61,-3.27 -3.31,-8.29 -3.03,-8.85 0.19,-0.38 0.24,-0.8 0.13,-1.2 -0.79,-4.47 0.76,-9.03 4.1,-12.09 0.64,-0.69 0.61,-1.77 -0.07,-2.41 -0.64,-0.59 -1.62,-0.62 -2.29,-0.05 -4.06,3.77 -6,9.29 -5.17,14.77 -0.55,1.37 -0.82,2.84 -0.8,4.31 0.02,1.13 0.24,2.25 0.67,3.31 -2,1.39 -3.15,4.11 -3.15,7.66 0,5.34 2.76,10.48 7.61,9.61 0.87,8.53 6.58,15.8 14.66,18.67l0 3.13 -6.28 2.11c-0.44,0.15 -0.79,0.46 -0.98,0.86 -8.08,2.79 -13.65,11.23 -13.65,20.96l0 3.84c0,0.94 0.76,1.71 1.7,1.71 0,0 0,0 0,0l53.18 0c0.94,0 1.71,-0.76 1.71,-1.71l0 -3.84c0,-2.57 -0.4,-5.14 -1.19,-7.59 -0.29,-0.9 -1.25,-1.38 -2.14,-1.09 -0.9,0.29 -1.38,1.25 -1.09,2.14 0.67,2.12 1.01,4.33 1.01,6.54l0 2.13 -19.63 0 5.55 -4.04c0.44,-0.32 0.7,-0.84 0.7,-1.38l0 -3.5 2.62 -1.9c0.44,-0.32 0.7,-0.84 0.7,-1.38l0 -7.17c2.34,1.1 4.39,2.75 5.95,4.8 0.58,0.74 1.65,0.87 2.39,0.3 0.74,-0.58 0.87,-1.65 0.3,-2.39l0 0c-2.24,-2.96 -5.31,-5.2 -8.82,-6.45 -0.19,-0.41 -0.56,-0.71 -0.98,-0.86l-6.28 -2.11 0 -3.14c5.47,-1.95 9.95,-5.95 12.51,-11.15 0.28,0.01 0.57,0.02 0.85,0.02l18.99 0c0.1,0.85 0.1,1.71 0.01,2.57 -0.28,2.39 -1.35,3.81 -3.27,4.35 -1.04,0.3 -1.71,1.32 -1.56,2.39 0.13,1.01 0.99,1.76 2,1.75 4.19,0 7.54,-0.91 9.93,-2.69 2.6,-2.01 4.18,-5.08 4.31,-8.36l18.08 0c9.61,0 17.41,-7.78 17.44,-17.4l0 -37.79c0,-9.62 -7.8,-17.4 -17.41,-17.4l0 -0zm-47.09 61.55l0 -9.08c0.8,-0.59 1.53,-1.26 2.19,-2 1.38,0.8 1.9,2.98 1.9,4.97 0,3.03 -1.32,7.2 -4.1,6.11l0 0zm-48.4 -6.11c0,-1.82 0.44,-3.84 1.6,-4.77 0.74,0.79 1.58,1.47 2.48,2.02l0 8.86c-2.77,1.09 -4.08,-3.08 -4.08,-6.11l0 0zm14.83 36.35l3.93 -1.32 4.76 20.07 -5.37 -3.9 0 -3.5c0,-0.55 -0.27,-1.05 -0.7,-1.38l-2.62 -1.9 0 -8.06 0 0 0 -0zm7.85 0.47l7.13 0 -3.56 14.99 -3.56 -14.99 0 0zm-21.32 18.53c0,-7.74 4.04,-14.49 10.06,-17.23l0 7.17c0,0.55 0.27,1.05 0.7,1.38l2.62 1.9 0 3.5c0,0.55 0.27,1.05 0.7,1.38l5.55 4.04 -19.63 0 0 -2.14 0 0zm36.29 -19l0 8.06 -2.62 1.9c-0.44,0.32 -0.7,0.84 -0.7,1.38l0 3.5 -5.37 3.9 4.76 -20.06 3.93 1.31 0 -0zm-7.44 -2.93l-7.95 0 0 -4.24c2.63,0.47 5.32,0.47 7.95,0l0 4.24zm-17.23 -12.78c-3.53,-3.5 -5.5,-8.28 -5.49,-13.26l0 -9.67c1.41,-0.69 2.53,-1.84 3.16,-3.27 1.64,-3.07 6.35,-4.92 12.01,-4.71 5.39,0.19 9.46,-0.99 12.15,-3.54 0.76,1.55 1.84,2.93 3.18,4.06 1.38,1.13 2.38,2.64 2.86,4.36 0.36,1.41 1.33,2.57 2.64,3.2 0.47,0.21 0.98,0.34 1.5,0.36l0 9.21c-0.01,16.6 -20.24,25.04 -32.02,13.26l0 0z"></path>
         </g>
        </g>
       </g>
      </g>
     </g>
    </g>
   </svg>