   <svg xmlns="http://www.w3.org/2000/svg" xml:space="preserve" width="1.78106in" height="1.49419in" version="1.1" style="shape-rendering:geometricPrecision; text-rendering:geometricPrecision; image-rendering:optimizeQuality; fill-rule:evenodd; clip-rule:evenodd" viewBox="0 0 105.72 88.69" xmlns:xlink="http://www.w3.org/1999/xlink">
    <defs>
     <style type="text/css">
      
       .feature-four-fil0 {fill: rgba(2,33,49,.89)}
       .feature-four-fil3 {fill:#f06192}
       .feature-four-fil2 {fill:#f06192}
       .feature-four-fil1 {fill:#f9f7f7}
       .feature-four-fil4 {fill:#1A120B}
       
     </style>
    </defs>
    <g id="Layer_x0020_1">
     <metadata id="CorelCorpID_0Corel-Layer"></metadata>
     <g id="_1943942949984">
      <g id="Group_21002">
       <g id="Group_20386">
        <path id="Path_88220" class="feature-four-fil0" d="M104.55 22.17c2.83,13.87 0.43,28.71 -6.13,41.34 -22.04,42.34 -81.52,26.73 -96.16,-13.19 -2.53,-6.91 -3.63,-15.13 0.49,-21.23 4.62,-6.85 13.96,-8.49 22.22,-8.33 8.26,0.16 16.9,1.43 24.48,-1.84 12.69,-5.47 18.05,-20.32 33.95,-18.83 12.59,1.17 18.82,10.64 21.16,22.07z"></path>
       </g>
       <g id="technical-support">
        <path id="Path_88297" class="feature-four-fil1" d="M39.51 24.95l0 9.35 -0.4 6.37c-0.19,3.02 2.1,5.63 5.12,5.82 0.12,0.01 0.23,0.01 0.35,0.01l16.84 0c3.02,0 5.48,-2.46 5.48,-5.48 0,-0.11 -0.01,-0.23 -0.01,-0.35l-0.4 -6.37 0 -9.36c0,-5.75 -4.66,-10.41 -10.41,-10.41l-6.16 0c-5.74,0.01 -10.4,4.66 -10.4,10.41l0 0z"></path>
        <path id="Path_88298" class="feature-four-fil1" d="M66.9 40.67l-0.4 -6.37 0 -9.36c0,-5.75 -4.66,-10.41 -10.41,-10.41 0,0 0,0 0,0l-5.97 0c5.75,0 10.41,4.66 10.41,10.41l0 0 0 9.35 0.4 6.37c0.19,3.02 -2.1,5.63 -5.12,5.82 -0.11,0.01 -0.23,0.01 -0.35,0.01l5.97 0c3.02,0 5.48,-2.46 5.48,-5.48 -0.01,-0.11 -0.01,-0.23 -0.01,-0.35l0 0z"></path>
        <path id="Path_88299" class="feature-four-fil1" d="M60.57 50.15c-1.18,-0.28 -2.03,-1.89 -2.03,-3.3l0 -6.31 -11.06 0 0 6.3c0,1.41 -0.85,3.02 -2.03,3.3 -4.05,1.3 -6.29,5.63 -4.99,9.69 0.44,1.39 1.27,2.62 2.39,3.56l20.34 0c3.26,-2.74 3.68,-7.6 0.95,-10.86 -0.93,-1.11 -2.17,-1.94 -3.55,-2.38l0 0z"></path>
        <path id="Path_88300" class="feature-four-fil1" d="M60.57 50.15c-1.18,-0.28 -2.03,-1.89 -2.03,-3.3l0 -6.31 -6.01 0 0 8.72c0,1.41 0.85,3.02 2.03,3.3 4.06,1.3 6.3,5.65 4.99,9.71 -0.12,0.38 -0.27,0.76 -0.46,1.12l4.08 0c3.26,-2.74 3.68,-7.6 0.95,-10.86 -0.93,-1.11 -2.16,-1.94 -3.55,-2.38l0 0z"></path>
        <path id="Path_88301" class="feature-four-fil1" d="M79.89 71.58l-2.14 -12.5c-0.51,-3 -2.71,-5.44 -5.65,-6.25l-4.12 -1.18c-2.76,-0.79 -5.63,-1.17 -8.5,-1.14 -3.73,0.04 -9.23,0.04 -12.97,0 -2.87,-0.03 -5.74,0.35 -8.5,1.14l-4.12 1.18c-2.94,0.82 -5.14,3.26 -5.65,6.25l-2.13 12.5c-0.2,1.19 0.59,2.32 1.78,2.53 0.12,0.02 0.25,0.03 0.37,0.03l49.45 0c1.21,0 2.19,-0.98 2.19,-2.19 0,-0.13 -0.01,-0.25 -0.03,-0.37z"></path>
        <path id="Path_88302" class="feature-four-fil1" d="M79.89 71.58l-2.14 -12.5c-0.51,-3 -2.71,-5.44 -5.65,-6.25l-4.12 -1.18c-2.76,-0.79 -5.63,-1.17 -8.5,-1.14 -1.3,0.01 -2.82,0.03 -4.4,0.03 2.12,0.1 4.22,0.44 6.26,1.02l4.43 1.26c2.94,0.82 5.14,3.25 5.65,6.25l2.57 15.05 3.74 0c1.21,0 2.19,-0.98 2.19,-2.19 0,-0.12 -0.01,-0.24 -0.03,-0.36l0 0z"></path>
        <path id="Path_88303" class="feature-four-fil1" d="M60.6 19.25c-4.32,-3.88 -10.88,-3.88 -15.21,0 -2.26,1.99 -3.54,4.86 -3.51,7.87l0 7.29c0,3.01 3.77,10.97 11.11,10.97 7.34,0 11.11,-7.97 11.11,-10.97l0 -7.29c0.03,-3.01 -1.25,-5.88 -3.51,-7.87z"></path>
        <path id="Path_88304" class="feature-four-fil1" d="M60.6 19.25c-2.86,-2.6 -6.86,-3.54 -10.59,-2.5 1.71,0.48 3.29,1.34 4.62,2.5 2.26,1.99 3.54,4.87 3.51,7.87l0 7.29c0,2.56 -2.75,8.75 -8.13,10.5 0.97,0.31 1.97,0.47 2.99,0.47 7.34,0 11.11,-7.97 11.11,-10.97l0 -7.29c0.03,-3.01 -1.25,-5.89 -3.51,-7.88l0 0z"></path>
        <path id="Path_88305" class="feature-four-fil2" d="M55.54 42.37l-1.76 0c-0.84,0 -1.52,-0.68 -1.52,-1.52 0,-0.84 0.68,-1.52 1.52,-1.52l1.76 0c0.84,0 1.52,0.68 1.52,1.52 0,0.84 -0.68,1.52 -1.52,1.52z"></path>
        <path id="Path_88306" class="feature-four-fil1" d="M72.75 71.14l-39.49 0 -1.21 -19.52c-0.06,-1.03 0.72,-1.92 1.75,-1.98 0.04,0 0.08,-0.01 0.12,-0.01l38.17 0c1.04,0 1.87,0.84 1.87,1.87 0,0.04 0,0.08 -0.01,0.11l-1.21 19.52z"></path>
        <path id="Path_88307" class="feature-four-fil1" d="M72.09 49.63l-5.99 0c1.04,0 1.87,0.84 1.87,1.87 0,0.04 0,0.08 -0.01,0.11l-1.21 19.52 5.99 0 1.21 -19.52c0.06,-1.03 -0.72,-1.92 -1.75,-1.98 -0.04,-0.01 -0.08,-0.01 -0.12,-0.01z"></path>
        <path id="Path_88308" class="feature-four-fil1" d="M74.25 70.61l-42.5 0c-0.97,0 -1.76,0.79 -1.76,1.76 0,0.97 0.79,1.77 1.76,1.77 0,0 0,0 0.01,0l42.5 0c0.97,0 1.76,-0.79 1.76,-1.76 0,-0.97 -0.79,-1.77 -1.76,-1.77 0.01,0 0.01,0 0,0z"></path>
        <path id="Path_88309" class="feature-four-fil1" d="M74.25 70.61l-4.21 0 0 3.52 4.21 0c0.97,0 1.76,-0.79 1.76,-1.77 0,-0.97 -0.79,-1.76 -1.76,-1.76z"></path>
        <path id="Path_88310" class="feature-four-fil3" d="M58.35 55.04c-2.95,-2.95 -7.74,-2.95 -10.69,0 -2.95,2.95 -2.95,7.74 0,10.69 2.95,2.95 7.74,2.95 10.69,0 0,0 0,0 0,0 2.95,-2.95 2.95,-7.73 0,-10.69z"></path>
        <path id="Path_88311" class="feature-four-fil1" d="M56.65 59.28c-0.13,-0.13 -0.35,-0.13 -0.47,0 0,0 0,0 0,0l-2.01 2.01c-0.51,0.51 -1.32,0.51 -1.82,0l0 0c-0.51,-0.51 -0.51,-1.32 0,-1.82 0,0 0,0 0,0l2.01 -2.01c0.13,-0.13 0.13,-0.35 0,-0.47l-0.21 -0.21c-0.08,-0.08 -0.19,-0.11 -0.29,-0.1l-3.46 0.59c-0.38,0.06 -0.69,0.36 -0.77,0.74l-0.4 3.11c-0.1,0.81 -0.47,1.55 -1.04,2.12l-1.4 1.4c0.59,0.88 1.37,1.62 2.28,2.17l1.35 -1.35c0.57,-0.58 1.32,-0.94 2.12,-1.04l3.11 -0.4c0.38,-0.08 0.67,-0.39 0.74,-0.77l0.59 -3.46c0.02,-0.11 -0.02,-0.22 -0.1,-0.29l-0.22 -0.22z"></path>
        <path id="Path_88312" class="feature-four-fil2" d="M41.55 34.93l-1.55 0c-1.27,0 -2.29,-1.02 -2.29,-2.29 0,0 0,0 0,0l0 -3.56c0,-1.27 1.02,-2.29 2.29,-2.29 0,0 0,0 0,0l1.55 0c0.23,0 0.42,0.19 0.42,0.42l0 0 0 7.32c0,0.22 -0.19,0.41 -0.42,0.41l0 0 0 0z"></path>
        <path id="Path_88313" class="feature-four-fil2" d="M64.45 34.93l1.55 0c1.27,0 2.29,-1.02 2.29,-2.29 0,0 0,0 0,0l0 -3.56c0,-1.27 -1.02,-2.29 -2.29,-2.29l0 0 -1.55 0c-0.23,0 -0.42,0.19 -0.42,0.42l0 7.32c0,0.22 0.19,0.41 0.42,0.41z"></path>
        <path id="Path_88314" class="feature-four-fil1" d="M66.49 29.71l0 -4.76c0,-5.75 -4.66,-10.41 -10.41,-10.41l-6.16 0c-5.75,0 -10.41,4.66 -10.41,10.41l0 0 0 3.38c0,0.36 0.21,0.7 0.54,0.85 0.54,0.23 1.13,0.34 1.71,0.31 4.76,-0.19 6.08,-4.13 6.41,-5.83 0.03,-0.15 0.19,-0.26 0.34,-0.23 0.07,0.01 0.13,0.06 0.18,0.11 1.35,1.88 5.95,6.47 15.29,7.07 0.22,0.01 0.8,0.03 1.55,0.03 0.52,0.01 0.94,-0.41 0.95,-0.93 0.01,0.01 0.01,0.01 0.01,0l0 0z"></path>
        <path id="Path_88315" class="feature-four-fil1" d="M56.08 14.54l-5.93 0c5.75,0 10.41,4.66 10.41,10.41l0 4.76c0,0.16 -0.04,0.31 -0.11,0.45 1.17,0.22 2.36,0.37 3.55,0.45 0.22,0.01 0.8,0.03 1.55,0.03 0.52,0.01 0.94,-0.41 0.95,-0.92 0,-0.01 0,-0.01 0,-0.01l0 -4.76c-0.01,-5.76 -4.67,-10.42 -10.42,-10.42z"></path>
        <path id="Path_88316" class="feature-four-fil0" d="M46.96 66.3l0.06 0.07 0.04 0.04 0.01 0.01 0.03 0.03 0.01 0.01c3.34,3.26 8.7,3.18 11.96,-0.16 3.26,-3.34 3.18,-8.7 -0.16,-11.96 -3.34,-3.26 -8.7,-3.18 -11.96,0.16 -3.2,3.28 -3.2,8.52 0.01,11.8l0 0zm1.97 -0.65c-0.19,-0.15 -0.38,-0.31 -0.56,-0.49l0 0 -0.03 -0.03 -0.01 -0.01 -0.03 -0.03 -0.04 -0.04 -0.01 -0.01c-0.1,-0.1 -0.2,-0.21 -0.3,-0.33l0.84 -0.84c0.71,-0.72 1.17,-1.64 1.3,-2.64l0.4 -3.05c0.01,-0.02 0.03,-0.03 0.04,-0.03l2.23 -0.38 -1.05 1.05c-0.87,0.84 -0.9,2.23 -0.06,3.1 0.84,0.87 2.23,0.9 3.1,0.06 0.02,-0.02 0.04,-0.04 0.06,-0.06l1.05 -1.05 -0.38 2.23c-0.01,0.02 -0.01,0.04 -0.03,0.04l-3.05 0.4c-1,0.13 -1.92,0.59 -2.64,1.3l-0.81 0.83zm-2.58 -5.26c0.01,-3.67 2.99,-6.64 6.66,-6.63 3.67,0.01 6.64,2.99 6.63,6.66 -0.01,3.67 -2.99,6.64 -6.66,6.63 -0.83,0 -1.66,-0.16 -2.43,-0.47l0.47 -0.47c0.43,-0.43 0.99,-0.71 1.6,-0.79l3.11 -0.4c0.03,-0.01 0.05,-0.01 0.08,-0.01 0.74,-0.16 1.3,-0.75 1.43,-1.5l0.59 -3.46c0.07,-0.4 -0.06,-0.8 -0.35,-1.08l-0.21 -0.21c-0.48,-0.48 -1.27,-0.48 -1.75,0l-2.01 2.01c-0.15,0.15 -0.4,0.15 -0.55,-0.01 -0.15,-0.15 -0.15,-0.4 0,-0.54l2.01 -2.01c0.48,-0.48 0.48,-1.27 0,-1.75l-0.21 -0.21c-0.28,-0.28 -0.69,-0.41 -1.08,-0.35l-3.46 0.59c-0.75,0.13 -1.34,0.69 -1.5,1.43 -0.01,0.03 -0.01,0.05 -0.01,0.08l-0.4 3.11c-0.08,0.61 -0.36,1.16 -0.79,1.6l-0.57 0.57c-0.42,-0.88 -0.62,-1.84 -0.62,-2.79l0 0z"></path>
        <path id="Path_88317" class="feature-four-fil4" d="M80.78 71.42l-2.14 -12.5c-0.41,-2.42 -1.81,-4.55 -3.87,-5.88l0.08 -1.38c0.1,-1.53 -1.07,-2.84 -2.6,-2.94 -0.06,-0.01 -0.12,-0.01 -0.17,-0.01l-12.02 0c-0.29,-0.4 -0.49,-0.85 -0.58,-1.33l1.94 0c3.52,0 6.38,-2.85 6.38,-6.38 0,-0.13 -0.01,-0.27 -0.01,-0.41l-0.33 -5.14c1.06,-0.55 1.73,-1.64 1.73,-2.83l0 -3.56c-0.01,-1.22 -0.7,-2.33 -1.8,-2.87l0 -1.25c0,-0.33 -0.01,-0.67 -0.04,-1 -0.03,-0.5 -0.45,-0.88 -0.95,-0.84 -0.5,0.03 -0.88,0.45 -0.84,0.95 0,0.02 0,0.04 0.01,0.06 0.03,0.28 0.04,0.56 0.04,0.84l0 4.76c0,0.01 -0.01,0.02 -0.01,0.03 -0.01,0.01 -0.02,0.01 -0.03,0.01 -0.95,-0.01 -1.32,-0.02 -1.46,-0.03l-0.01 0 -0.03 0c-9.8,-0.63 -13.9,-5.69 -14.62,-6.7 -0.38,-0.54 -1.13,-0.66 -1.66,-0.28 -0.24,0.17 -0.42,0.43 -0.47,0.74 -0.82,4.1 -3.59,4.97 -5.33,5.1l-0.01 0c-0.04,0 -0.08,0 -0.12,0.01l-0.11 0.01c-0.45,0.03 -0.9,-0.06 -1.31,-0.23 -0.01,-0.01 -0.01,-0.02 -0.01,-0.03l0 -1.47c0,-0.01 0,-0.02 0,-0.03l0 -1.87c0.01,-5.25 4.26,-9.51 9.51,-9.52l6.16 0c3.52,0 6.75,1.94 8.4,5.05 0.23,0.44 0.78,0.61 1.21,0.37 0.44,-0.23 0.61,-0.78 0.37,-1.21 -1.96,-3.7 -5.81,-6.02 -10,-6.01l-6.16 0c-6.24,0.01 -11.31,5.06 -11.31,11.31l0 1.25c-1.1,0.54 -1.8,1.65 -1.8,2.87l0 3.56c0,1.19 0.67,2.28 1.73,2.83l-0.33 5.14c-0.22,3.52 2.45,6.55 5.97,6.77 0.13,0.01 0.27,0.01 0.4,0.01l1.94 -0c-0.09,0.48 -0.29,0.94 -0.58,1.33l-12.03 0c-1.53,0 -2.77,1.24 -2.77,2.77 0,0.06 0,0.12 0.01,0.17l0.08 1.38c-2.06,1.33 -3.46,3.46 -3.87,5.88l-2.14 12.5c-0.29,1.68 0.84,3.27 2.53,3.56 0.17,0.03 0.35,0.04 0.52,0.04l49.45 0c1.71,0 3.09,-1.38 3.09,-3.09 0,-0.17 -0.02,-0.35 -0.04,-0.52l0 0zm-16.01 -27.27c-0.86,0.93 -2.07,1.45 -3.34,1.45l-1.99 0 0 -1.48c0.88,-0.67 1.68,-1.43 2.38,-2.29l0.06 -0.07 2.58 0c0.61,0 1.2,-0.3 1.55,-0.8 0.02,1.19 -0.43,2.33 -1.24,3.2l0 0zm0.17 -12.62l0.59 0.01 0.02 0c1.01,0 1.84,-0.82 1.84,-1.84 0,0 0,0 0,0l0 -0.73c0,0.03 0,0.06 0,0.09l0 3.56c0,0.63 -0.42,1.18 -1.03,1.34 -0.03,0.01 -0.06,0.01 -0.09,0.02 -0.09,0.02 -0.18,0.03 -0.27,0.03l-1.07 0 0 -2.48 0.01 0zm-0.16 4.54l-0.22 3.78c0,0.06 -0.05,0.1 -0.1,0.1l-1.32 0c0.74,-1.21 1.29,-2.51 1.65,-3.89l0 0.01zm-21.92 -1.57l0 -4.23c1.77,-0.25 3.37,-1.18 4.47,-2.58 0.63,-0.81 1.1,-1.71 1.41,-2.68 1.75,1.93 6.15,5.69 14.39,6.43l0 3.06c0,0.11 0.01,0.23 0.04,0.35 -0.33,1.85 -1.09,3.59 -2.21,5.1l-3.2 -0c-0.37,-0.91 -1.25,-1.52 -2.24,-1.52l-1.76 0c-1.34,0 -2.42,1.08 -2.42,2.42 0,1.34 1.08,2.42 2.42,2.42l0 0 1.76 0c0.98,0 1.87,-0.6 2.24,-1.52l1.66 0c-0.43,0.42 -0.89,0.79 -1.38,1.13l-0.04 0.03c-3.01,2.08 -7,2.08 -10.01,0l-0.04 -0.03c-0.89,-0.62 -1.69,-1.36 -2.37,-2.2 -1.41,-1.67 -2.36,-3.68 -2.76,-5.83 0.03,-0.12 0.04,-0.24 0.04,-0.36l0 0zm13.29 6.34c0,0.34 -0.27,0.61 -0.61,0.61l-1.76 0c-0.34,0 -0.61,-0.28 -0.61,-0.61 0,-0.34 0.28,-0.61 0.61,-0.61l1.76 0c0.34,0 0.61,0.27 0.61,0.61zm1.86 7.87l-10.02 0c0.24,-0.59 0.38,-1.23 0.38,-1.88l0 -1.64c2.93,1.41 6.34,1.41 9.27,0l0 1.64c0,0.65 0.13,1.29 0.38,1.88zm-18.28 -14.73c-0.03,-0.01 -0.06,-0.02 -0.09,-0.03 -0.61,-0.17 -1.03,-0.72 -1.03,-1.34l0 -3.56c0,-0.12 0.01,-0.24 0.04,-0.35 0.12,0.57 0.51,1.04 1.04,1.28 0.43,0.19 0.9,0.31 1.37,0.36l0 3.67 -1.07 0c-0.09,0 -0.18,-0.01 -0.27,-0.03l0 0zm4.85 11.6c-2.53,0 -4.59,-2.05 -4.59,-4.59 0,-0.1 0,-0.19 0.01,-0.29l0.31 -4.91 0.84 0c0.54,2.21 1.58,4.26 3.02,6.01 0.7,0.86 1.5,1.62 2.38,2.28l0 1.48 -1.98 0 0 0.01zm-15.35 27.63l-0.96 0c-0.71,0 -1.29,-0.58 -1.29,-1.29 0,-0.07 0.01,-0.15 0.02,-0.22l2.13 -12.49c0.26,-1.56 1.05,-2.98 2.23,-4.03l0.9 14.5 -0.52 0c-1.47,0 -2.66,1.2 -2.66,2.67 0.01,0.29 0.05,0.58 0.15,0.86l0 0zm45.02 0l-42.51 0c-0.48,0 -0.86,-0.38 -0.86,-0.86 0,-0.48 0.38,-0.86 0.86,-0.86l5.28 0c0.5,0 0.9,-0.4 0.9,-0.9 0,-0.5 -0.4,-0.9 -0.9,-0.9l-2.96 0 -1.12 -18.14c-0.03,-0.54 0.37,-1 0.91,-1.03 0.02,0 0.04,0 0.06,0l38.17 0c0.54,0 0.97,0.43 0.97,0.97 0,0.02 0,0.04 0,0.06l-1.12 18.14 -30.77 0c-0.5,0 -0.9,0.4 -0.9,0.9 0,0.5 0.4,0.9 0.9,0.9l0 0 33.09 0c0.48,0 0.86,0.38 0.86,0.86 0,0.48 -0.39,0.86 -0.86,0.86l0 0zm4.46 -0.46c-0.24,0.29 -0.61,0.46 -0.98,0.46l-0.96 0c0.47,-1.39 -0.27,-2.9 -1.66,-3.38 -0.28,-0.1 -0.57,-0.14 -0.86,-0.14l-0.52 0 0.9 -14.51c1.18,1.05 1.96,2.47 2.23,4.03l2.14 12.5c0.07,0.37 -0.04,0.75 -0.28,1.04l0 0z"></path>
       </g>
      </g>
     </g>
    </g>
   </svg>