<svg xmlns="http://www.w3.org/2000/svg" width="20.667" height="24.314" viewBox="0 0 20.667 24.314">
  <g id="Iconly_Broken_Location" data-name="Iconly/Broken/Location" transform="translate(-3.5 -2)">
    <g id="Location" transform="translate(3.5 2)">
      <path id="Combined-Shape" d="M10.374,0A10.339,10.339,0,0,1,20.667,10.36h0v.113c-.077,4.066-2.521,7.44-4.558,9.554a24.993,24.993,0,0,1-1.833,1.726A.906.906,0,1,1,13.1,20.376c.589-.5,1.162-1.042,1.7-1.6,1.813-1.881,3.986-4.854,4.052-8.332a8.544,8.544,0,0,0-8.485-8.629h-.033a8.524,8.524,0,0,0-8.519,8.475,11.086,11.086,0,0,0,2.261,6.352,27.2,27.2,0,0,0,6.466,6.011.906.906,0,0,1-.991,1.518,29.126,29.126,0,0,1-6.925-6.437A12.894,12.894,0,0,1,0,10.349,10.353,10.353,0,0,1,10.333,0h0ZM10.33,6.545A3.927,3.927,0,1,1,6.4,10.472a.907.907,0,0,1,1.815,0A2.118,2.118,0,1,0,10.33,8.356a.906.906,0,1,1,0-1.811Z" transform="translate(0 0)" fill="#fff"></path>
    </g>
  </g>
</svg>