<?xml version="1.0" standalone="no"?>
<!DOCTYPE svg PUBLIC "-//W3C//DTD SVG 20010904//EN"
 "http://www.w3.org/TR/2001/REC-SVG-20010904/DTD/svg10.dtd">
<svg version="1.0" xmlns="http://www.w3.org/2000/svg"
 width="1000.000000pt" height="1000.000000pt" viewBox="0 0 1000.000000 1000.000000"
 preserveAspectRatio="xMidYMid meet">

<g transform="translate(0.000000,1000.000000) scale(0.100000,-0.100000)"
 stroke="none">
<path fill="#00aaff" d="M4315 8804 c-246 -30 -513 -94 -745 -181 -596 -222 -1100 -615 -1492
-1163 -137 -191 -137 -191 -34 -397 213 -424 619 -1028 766 -1140 l44 -34 12
34 c7 19 24 94 38 168 40 202 122 389 258 592 296 440 753 723 1281 792 278
36 546 9 847 -87 l131 -41 64 18 c46 12 100 41 187 98 166 108 229 137 298
137 68 0 201 -28 390 -81 424 -119 539 -149 578 -149 50 0 114 30 220 103 46
32 71 55 68 64 -21 53 -116 166 -285 334 -219 218 -309 294 -491 414 -443 291
-906 461 -1420 519 -170 20 -548 19 -715 0z"/>
<path fill="#f9499e" d="M8335 7921 c-155 -39 -149 -36 -785 -438 -261 -165 -488 -307 -505
-315 -57 -29 -88 -30 -171 -4 -43 13 -249 70 -458 126 -456 123 -444 122 -581
38 -49 -30 -125 -74 -167 -98 -88 -49 -152 -103 -146 -122 7 -22 98 -85 201
-140 169 -91 414 -232 463 -266 39 -28 45 -36 33 -47 -8 -7 -196 -129 -419
-270 -223 -142 -445 -285 -495 -317 -84 -56 -93 -60 -136 -55 -47 6 -572 186
-894 307 -276 103 -310 113 -361 105 -56 -8 -187 -73 -239 -118 -38 -33 -39
-35 -25 -62 25 -46 160 -203 344 -399 216 -230 326 -354 326 -370 0 -20 -50
-61 -150 -121 -113 -69 -146 -98 -160 -140 -22 -66 27 -115 114 -115 60 0 168
26 481 115 143 40 388 106 545 145 492 124 774 210 980 297 159 68 350 174
965 533 176 103 510 296 743 428 739 423 991 578 1172 722 194 154 291 268
293 345 2 67 -37 87 -318 160 -373 98 -504 113 -650 76z"/>
<path fill="#f9499e" d="M1793 6972 c-44 -82 -116 -269 -152 -397 -76 -274 -111 -525 -118
-857 -8 -345 10 -525 82 -823 134 -558 361 -968 804 -1449 165 -180 2258
-2266 2273 -2266 9 0 245 229 524 509 l509 510 305 4 c377 6 537 29 816 118
677 217 1211 675 1519 1304 175 358 261 672 271 985 l5 165 -26 -95 c-67 -244
-191 -519 -310 -685 -75 -105 -247 -291 -355 -383 -313 -268 -726 -438 -1175
-483 -168 -17 -510 -6 -690 21 -468 71 -930 222 -1415 464 -220 110 -348 184
-570 331 -338 224 -617 451 -905 740 -425 425 -759 882 -1004 1375 -118 238
-165 359 -260 674 -45 148 -85 275 -89 282 -5 9 -18 -5 -39 -44z"/>
<path fill="#00aaff" d="M7640 6272 c-108 -59 -249 -141 -705 -407 -49 -29 -148 -85 -220
-125 -71 -40 -138 -80 -149 -89 -35 -31 -47 -73 -61 -226 -24 -240 -60 -368
-167 -577 -118 -233 -252 -409 -423 -556 -60 -52 -118 -104 -128 -117 l-17
-23 67 -16 c229 -52 517 -73 763 -57 580 39 1063 215 1411 514 171 146 377
416 439 575 l20 54 -32 -23 c-18 -13 -94 -69 -168 -124 -74 -56 -156 -116
-182 -134 -98 -66 -315 -157 -333 -139 -3 3 15 126 40 274 55 320 68 490 55
729 -13 244 -56 535 -78 535 -4 0 -63 -31 -132 -68z"/>
</g>
</svg>
