<svg xmlns="http://www.w3.org/2000/svg" width="58.718" height="56.284" viewBox="0 0 58.718 56.284">
  <g id="XMLID_1765_" transform="translate(-6.532 -15.483) rotate(-14)">
    <g id="XMLID_72_" transform="translate(0 27.001)">
      <path id="XMLID_98_" d="M40.81,27A3.492,3.492,0,0,0,37.6,29.139l-4.139,2.69a1.025,1.025,0,0,0,1.118,1.719l2.75-1.788V63.256L22.969,53.925V41.093l3.868-2.514a1.025,1.025,0,0,0-1.118-1.719l-4.08,2.652H8.306a3.389,3.389,0,0,0-3.267,2.5L.654,43.72A1.025,1.025,0,0,0,0,44.676v5.665a1.025,1.025,0,0,0,.654.956L5.038,53a3.389,3.389,0,0,0,3.267,2.5H9.462l5.453,15.219a4.887,4.887,0,0,0,9.2-3.3L19.844,55.507h1.8L37.6,65.878a3.486,3.486,0,0,0,6.7-1.348V30.487A3.49,3.49,0,0,0,40.81,27ZM2.051,45.378l2.871-1.117v6.5L2.051,49.64Zm4.922,6.745V42.894a1.335,1.335,0,0,1,1.333-1.333H20.918V53.456H8.306A1.335,1.335,0,0,1,6.973,52.123Zm15.213,16a2.836,2.836,0,0,1-2.67,3.792,2.842,2.842,0,0,1-2.669-1.879L15.168,65.35h1.341a1.025,1.025,0,0,0,0-2.051H14.433L13.4,60.429h1.327a1.025,1.025,0,0,0,0-2.051H12.67l-1.029-2.871h6.025Zm20.061-3.59a1.436,1.436,0,0,1-2.871,0V30.487a1.436,1.436,0,0,1,2.871,0Z" transform="translate(0 -27.001)" fill="#fff"></path>
      <path id="XMLID_819_" d="M457.127,234.552a1.025,1.025,0,0,0,0-2.051h-4.1a1.025,1.025,0,0,0,0,2.051Z" transform="translate(-405.653 -211.429)" fill="#fff"></path>
      <path id="XMLID_822_" d="M458.384,148.574a1.021,1.021,0,0,0,.512-.137l3.552-2.051a1.025,1.025,0,0,0-1.025-1.776l-3.552,2.051a1.025,1.025,0,0,0,.514,1.913Z" transform="translate(-410.46 -132.427)" fill="#fff"></path>
      <path id="XMLID_831_" d="M462.448,302.715l-3.552-2.051a1.025,1.025,0,1,0-1.025,1.776l3.552,2.051a1.025,1.025,0,0,0,1.025-1.776Z" transform="translate(-410.46 -272.479)" fill="#fff"></path>
      <path id="XMLID_837_" d="M285.025,99.052a1.026,1.026,0,1,0-.725-.3A1.033,1.033,0,0,0,285.025,99.052Z" transform="translate(-254.879 -89.823)" fill="#fff"></path>
    </g>
  </g>
</svg>