<svg xmlns="http://www.w3.org/2000/svg" width="25.086" height="24.978" viewBox="0 0 25.086 24.978">
  <g id="phone-call_3_" data-name="phone-call(3)" transform="translate(-0.375 0.4)">
    <path id="Path_90569" data-name="Path 90569" d="M19.5,24.178a7.154,7.154,0,0,1-2.744-.637,9.392,9.392,0,0,1-1.873-1.225l-.028-.024-1.4-1.279L13.439,21l-9.5-9.527-.015-.016-1.275-1.4-.024-.028A9.431,9.431,0,0,1,1.407,8.145,6.089,6.089,0,0,1,.89,4.368,5.229,5.229,0,0,1,2.4,1.91L3.541.761a2.591,2.591,0,0,1,3.669,0l3.5,3.513a2.284,2.284,0,0,1,0,3.22L8.981,9.23l1.842,1.842a.472.472,0,0,1-.668.668L7.98,9.564a.472.472,0,0,1,0-.667l2.063-2.07a1.338,1.338,0,0,0,0-1.886l-3.5-3.513a1.647,1.647,0,0,0-2.331,0L3.064,2.577c-1.286,1.29-1.866,2.611-.785,5.2A8.364,8.364,0,0,0,3.364,9.43l1.255,1.383L14.1,20.324l1.379,1.259a8.324,8.324,0,0,0,1.643,1.088c2.583,1.084,3.9.5,5.184-.787l1.145-1.149a1.662,1.662,0,0,0,0-2.343l-3.488-3.5a1.346,1.346,0,0,0-1.9,0l-2.037,2.044a.472.472,0,0,1-.334.139h0a.472.472,0,0,1-.334-.138l-2.179-2.179a.472.472,0,0,1,.668-.668l1.844,1.844,1.7-1.709a2.29,2.29,0,0,1,3.242,0l3.488,3.5a2.608,2.608,0,0,1,0,3.676L22.975,22.55a5.21,5.21,0,0,1-2.451,1.51A4.354,4.354,0,0,1,19.5,24.178Z" transform="translate(0)" fill="#fff" stroke="#fff" stroke-width="0.8"></path>
  </g>
</svg>